<?xml version="1.0" encoding="iso-8859-1"?>
<!-- Generator: Adobe Illustrator 16.0.0, SVG Export Plug-In . SVG Version: 6.00 Build 0)  -->
<!DOCTYPE svg PUBLIC "-//W3C//DTD SVG 1.1//EN" "http://www.w3.org/Graphics/SVG/1.1/DTD/svg11.dtd">
<svg xmlns="http://www.w3.org/2000/svg" xmlns:xlink="http://www.w3.org/1999/xlink" version="1.1" id="Capa_1" x="0px" y="0px" width="512px" height="512px" viewBox="0 0 122.977 122.977" style="enable-background:new 0 0 122.977 122.977;" xml:space="preserve">
<g>
	<g>
		<path d="M64.548,48.033l-0.014-0.016l-0.016,0.016h-0.004v0.003l-9.771,8.709l0.013,0.016v65.667h54.179V48.033H64.548z     M104.636,103.123v1.429v13.575h-45.58v-13.575v-1.429V61.069l9.689,0.043l0.047-8.781h35.844V103.123z" fill="#FF7500"/>
		<circle cx="38.231" cy="12.668" r="12.668" fill="#FF7500"/>
		<path d="M63.845,46.33h10.848c-0.02-0.807-0.214-1.618-0.652-2.363c-1.373-2.344-4.387-3.128-6.73-1.755    c-6.697,3.927-8.07,1.84-12.141-4.358c-2.065-3.143-4.405-6.705-7.963-8.886c-0.214-0.133-0.437-0.226-0.661-0.32    c-1.411-0.939-2.994-1.634-4.609-2.029l-3.156,3.177l-3.06-3.213c-0.011,0.003-0.021,0.005-0.032,0.007    c-1.648,0.395-3.266,1.102-4.702,2.066c-0.219,0.092-0.438,0.184-0.645,0.313c-0.454,0.276-0.904,0.547-1.352,0.816    c-9.915,5.957-16.76,12.184-14.523,38.182c0.22,2.564,2.367,4.497,4.895,4.497c0.14,0,0.283-0.006,0.427-0.019    c2.706-0.231,4.711-2.615,4.478-5.32C23.34,56.384,24.052,50.21,25.813,46.22v19.375c0,1.325,0.256,2.56,0.707,3.694    c-0.033,0.255-0.058,0.514-0.058,0.775l0.004,47.098c0,3.209,2.602,5.814,5.812,5.814c3.212-0.003,5.813-2.605,5.813-5.814    l-0.003-40.418c0.229,0.012,0.46,0.029,0.692,0.029c0.045,0,0.09-0.006,0.136-0.006l-0.002,40.395    c0,3.211,2.604,5.814,5.813,5.814c3.21,0,5.813-2.605,5.813-5.814l0.002-46.809c0.761-1.41,1.206-3.009,1.206-4.76V49.532    c1.735,1.753,4.725,3.396,4.725,3.396L63.845,46.33z M38.808,54.867H38.75l-3.056-4.18l3.056-20.423h0.059l3.055,20.423    L38.808,54.867z" fill="#FF7500"/>
		<rect x="74.692" y="57.4" width="23.234" height="3.801" fill="#FF7500"/>
		<rect x="74.692" y="65.326" width="23.234" height="3.802" fill="#FF7500"/>
		<rect x="63.075" y="75.359" width="34.852" height="3.801" fill="#FF7500"/>
		<rect x="63.075" y="83.583" width="34.852" height="3.801" fill="#FF7500"/>
		<rect x="63.075" y="92.056" width="34.852" height="3.802" fill="#FF7500"/>
		<path d="M96.585,102.662l-0.574-0.996l-1,0.574l-0.813-0.812l-0.815,0.814l-0.996-0.575l-0.576,0.995l-1.112-0.297l-0.299,1.111    h-1.151v1.152l-1.111,0.297l0.297,1.111l-0.997,0.578l0.575,0.996l-0.813,0.813l0.813,0.815l-0.576,0.996l0.998,0.576    l-0.299,1.111l1.112,0.299l-0.001,1.151l1.152,0.001l0.297,1.111l1.113-0.299l0.574,0.998l0.998-0.576l0.814,0.814l0.814-0.812    l0.996,0.574l0.578-0.996l1.111,0.297l0.299-1.111h1.15v-1.151l1.111-0.298l-0.297-1.111l0.996-0.576l-0.574-0.998l0.813-0.813    l-0.813-0.815l0.575-0.996l-0.997-0.578l0.299-1.11l-1.112-0.299v-1.151h-1.153l-0.297-1.111L96.585,102.662z M87.755,108.426    l0.461-0.46l0.131,0.229v0.463l-0.131,0.229L87.755,108.426z M88.538,110.421l-0.564-0.326l0.326-0.563l0.188,0.186l0.12,0.447    L88.538,110.421z M88.487,107.137l-0.188,0.188l-0.326-0.564l0.563-0.324l0.068,0.254L88.487,107.137z M89.247,111.818l-0.63-0.17    l0.169-0.629l0.229,0.131l0.232,0.401V111.818z M89.247,105.302l-0.232,0.401l-0.229,0.133l-0.168-0.631l0.629-0.168V105.302z     M89.64,112.982l0.002-0.652l0.256,0.068l0.326,0.328l0.068,0.256H89.64z M90.224,104.128l-0.327,0.329l-0.255,0.066v-0.652h0.65    L90.224,104.128z M90.974,114.007l-0.166-0.629h0.265l0.401,0.231l0.131,0.229L90.974,114.007z M91.472,103.246l-0.401,0.23    h-0.263l0.168-0.63l0.629,0.171L91.472,103.246z M92.528,114.65l-0.325-0.564l0.257-0.068l0.447,0.12l0.188,0.188L92.528,114.65z     M92.907,102.717l-0.447,0.12l-0.256-0.069l0.326-0.562l0.564,0.326L92.907,102.717z M94.197,101.984l0.459,0.461l-0.231,0.133    h-0.461l-0.229-0.133L94.197,101.984z M94.195,114.869l-0.46-0.461l0.23-0.131h0.463l0.229,0.131L94.195,114.869z M95.862,114.65    l-0.562-0.326l0.188-0.188l0.447-0.119l0.255,0.067L95.862,114.65z M95.933,102.836l-0.447-0.119l-0.186-0.186l0.565-0.326    l0.324,0.562L95.933,102.836z M97.417,114.008l-0.628-0.169l0.134-0.229l0.399-0.23h0.265L97.417,114.008z M97.32,103.475    l-0.399-0.23l-0.133-0.229l0.631-0.169l0.168,0.63L97.32,103.475z M100.64,108.428l-0.461,0.459l-0.133-0.23v-0.461l0.133-0.229    L100.64,108.428z M99.855,106.434l0.565,0.326l-0.326,0.564l-0.188-0.189l-0.119-0.445L99.855,106.434z M99.907,109.718    l0.188-0.187l0.324,0.563l-0.562,0.324l-0.069-0.257L99.907,109.718z M99.147,105.037l0.63,0.168l-0.169,0.63l-0.23-0.132    l-0.229-0.401L99.147,105.037L99.147,105.037z M99.147,111.552l0.23-0.401l0.229-0.131l0.167,0.631l-0.628,0.168L99.147,111.552    L99.147,111.552z M98.755,103.873l-0.002,0.65l-0.257-0.07l-0.327-0.326l-0.066-0.256L98.755,103.873z M98.171,112.727    l0.326-0.328l0.256-0.068v0.652h-0.65L98.171,112.727z" fill="#FF7500"/>
		<path d="M79.398,107.365c-0.062,0.752-0.933,1.304-1.528,1.611c-0.66,0.342-1.71,0.637-2.264-0.033    c-0.092-0.109-0.278-0.094-0.373,0c-0.497,0.494-1.803,1.801-2.299,0.713c-0.071-0.154-0.305-0.168-0.414-0.053    c-0.299,0.311-0.547,0.666-0.828,0.993c-0.157,0.183-1.07,1.163-1.221,0.599c-0.129-0.49-0.137-0.776-0.527-1.141    c-0.159-0.146-0.342-0.234-0.534-0.283c-0.024-0.263-0.052-0.523-0.079-0.785c-0.119-1.135-0.26-2.267-0.316-3.404    c1.637-0.311,2.773-2.569,2.353-4.105c-0.187-0.673-0.808-1.344-1.56-1.111c-1.019,0.312-1.154,1.969-1.264,2.814    c-0.08,0.625-0.104,1.251-0.096,1.875c-0.054-0.003-0.109-0.009-0.167-0.016c-1.114-0.168-1.78-1.312-2.056-2.297    c-0.264-0.947-0.252-1.961-0.237-2.938c0.004-0.339-0.522-0.339-0.528,0c-0.027,2.083,0.116,4.803,2.406,5.67    c0.204,0.077,0.404,0.122,0.6,0.139c0.063,1.369,0.268,2.735,0.398,4.105c-0.089,0.002-0.18,0.01-0.27,0.02    c-0.92,0.096-1.672,0.652-1.838,1.586c-0.174,0.98,0.354,1.961,1.023,2.636c0.693,0.698,1.384,0.284,1.604-0.556    c0.164-0.633,0.135-1.342,0.123-1.992c-0.006-0.357-0.024-0.717-0.051-1.073c0.442,0.215,0.41,0.767,0.566,1.187    c0.13,0.349,0.525,0.394,0.848,0.34c0.774-0.131,1.301-1.01,1.795-1.627c0.715,0.914,2.012-0.047,2.75-0.736    c0.684,0.576,1.743,0.377,2.506,0.031c0.869-0.394,1.918-1.125,2.002-2.166C79.952,107.027,79.425,107.029,79.398,107.365z     M68.966,112.509c-0.019,0.358-0.052,1.58-0.672,1.194c-0.513-0.318-0.863-1.037-0.996-1.606    c-0.256-1.084,0.599-1.897,1.612-1.868C68.972,110.988,69.003,111.749,68.966,112.509z M68.992,104.287    c0.013-0.629,0.111-3.743,1.28-3.422c0.886,0.244,0.701,1.731,0.5,2.336c-0.268,0.801-0.946,1.58-1.777,1.798    C68.988,104.762,68.987,104.525,68.992,104.287z" fill="#FF7500"/>
	</g>
</g>
<g>
</g>
<g>
</g>
<g>
</g>
<g>
</g>
<g>
</g>
<g>
</g>
<g>
</g>
<g>
</g>
<g>
</g>
<g>
</g>
<g>
</g>
<g>
</g>
<g>
</g>
<g>
</g>
<g>
</g>
</svg>
