<?xml version="1.0" encoding="iso-8859-1"?>
<!-- Generator: Adobe Illustrator 16.0.0, SVG Export Plug-In . SVG Version: 6.00 Build 0)  -->
<!DOCTYPE svg PUBLIC "-//W3C//DTD SVG 1.1//EN" "http://www.w3.org/Graphics/SVG/1.1/DTD/svg11.dtd">
<svg xmlns="http://www.w3.org/2000/svg" xmlns:xlink="http://www.w3.org/1999/xlink" version="1.1" id="Capa_1" x="0px" y="0px" width="512px" height="512px" viewBox="0 0 125.006 125.006" style="enable-background:new 0 0 125.006 125.006;" xml:space="preserve">
<g>
	<g>
		<path d="M14.419,49.598c3.922,0,7.104-3.182,7.104-7.108c0-3.923-3.181-7.102-7.104-7.102c-3.925,0-7.105,3.179-7.105,7.102    C7.313,46.416,10.495,49.598,14.419,49.598z" fill="#FF7500"/>
		<path d="M19.144,51.325c-0.119-0.073-0.243-0.126-0.367-0.178c-0.793-0.527-1.682-0.915-2.589-1.142l-1.769,1.784l-1.717-1.8    c-0.006,0-0.01,0-0.018,0.001c-0.909,0.218-1.802,0.604-2.598,1.131c-0.141,0.058-0.282,0.118-0.419,0.203    c-5.515,3.382-8.684,6.06-9.661,21.714c-0.096,1.518,1.062,2.828,2.58,2.926c0.061,0.004,0.119,0.004,0.175,0.004    c1.445,0,2.659-1.123,2.75-2.588c0.33-5.285,0.866-8.711,1.633-11.072v9.559c0,0.741,0.146,1.434,0.397,2.068    c-0.02,0.145-0.033,0.29-0.033,0.438l0.004,26.414c0,1.801,1.458,3.26,3.259,3.26c1.8,0,3.258-1.459,3.258-3.262l-0.002-22.666    c0.13,0.006,0.261,0.016,0.39,0.016c0.025,0,0.05-0.004,0.076-0.004v22.654c0,1.803,1.458,3.262,3.259,3.262    c1.8,0,3.259-1.459,3.259-3.262l0.002-26.248c0.427-0.793,0.676-1.688,0.676-2.67v-9.475c0.756,2.357,1.281,5.766,1.607,10.988    c0.091,1.465,1.306,2.59,2.75,2.59c0.058,0,0.116-0.002,0.172-0.006c1.522-0.096,2.678-1.407,2.583-2.926    C27.825,57.384,24.658,54.707,19.144,51.325z M14.436,65.85H14.4l-1.711-2.345L14.4,52.053h0.035l1.712,11.452L14.436,65.85z" fill="#FF7500"/>
		<path d="M47.092,49.598c3.923,0,7.104-3.182,7.104-7.108c0-3.923-3.182-7.102-7.104-7.102c-3.925,0-7.104,3.179-7.104,7.102    C39.987,46.416,43.167,49.598,47.092,49.598z" fill="#FF7500"/>
		<path d="M51.817,51.325c-0.119-0.073-0.243-0.126-0.366-0.178c-0.794-0.527-1.683-0.915-2.589-1.142l-1.77,1.784l-1.716-1.8    c-0.006,0-0.011,0-0.017,0.001c-0.91,0.218-1.803,0.604-2.599,1.131c-0.14,0.058-0.282,0.118-0.418,0.203    c-5.516,3.382-8.684,6.06-9.662,21.714c-0.096,1.518,1.062,2.828,2.581,2.926c0.061,0.004,0.119,0.004,0.175,0.004    c1.446,0,2.659-1.123,2.751-2.588c0.33-5.285,0.865-8.711,1.632-11.072v9.559c0,0.741,0.145,1.434,0.397,2.068    c-0.021,0.145-0.034,0.29-0.034,0.438l0.004,26.414c0,1.801,1.459,3.26,3.259,3.26c1.801,0,3.259-1.459,3.259-3.262l-0.003-22.666    c0.131,0.006,0.261,0.016,0.39,0.016c0.026,0,0.05-0.004,0.076-0.004v22.654c0,1.803,1.458,3.262,3.258,3.262    c1.801,0,3.259-1.459,3.259-3.262l0.002-26.248c0.427-0.793,0.676-1.688,0.676-2.67v-9.475c0.756,2.357,1.281,5.766,1.606,10.988    c0.092,1.465,1.306,2.59,2.751,2.59c0.057,0,0.115-0.002,0.172-0.006c1.521-0.096,2.677-1.407,2.583-2.926    C60.5,57.384,57.333,54.707,51.817,51.325z M47.108,65.85h-0.034l-1.712-2.345l1.712-11.452h0.034l1.713,11.452L47.108,65.85z" fill="#FF7500"/>
		<path d="M110.617,49.598c3.923,0,7.104-3.182,7.104-7.108c0-3.923-3.181-7.102-7.104-7.102c-3.925,0-7.104,3.179-7.104,7.102    C103.513,46.416,106.692,49.598,110.617,49.598z" fill="#FF7500"/>
		<path d="M115.342,51.325c-0.119-0.073-0.243-0.126-0.367-0.178c-0.793-0.527-1.682-0.915-2.589-1.142l-1.77,1.784l-1.717-1.8    c-0.006,0-0.01,0-0.017,0.001c-0.909,0.218-1.803,0.604-2.599,1.131c-0.141,0.058-0.281,0.118-0.419,0.203    c-5.515,3.382-8.684,6.06-9.66,21.714c-0.097,1.518,1.062,2.828,2.581,2.926c0.061,0.004,0.118,0.004,0.175,0.004    c1.444,0,2.659-1.123,2.75-2.588c0.33-5.285,0.864-8.711,1.633-11.072v9.559c0,0.741,0.146,1.434,0.396,2.068    c-0.02,0.145-0.032,0.29-0.032,0.438l0.003,26.414c0,1.801,1.459,3.26,3.26,3.26s3.258-1.459,3.258-3.262l-0.002-22.666    c0.13,0.006,0.26,0.016,0.39,0.016c0.025,0,0.051-0.004,0.076-0.004v22.654c0,1.803,1.458,3.262,3.258,3.262    c1.801,0,3.261-1.459,3.261-3.262l0.001-26.248c0.428-0.793,0.676-1.688,0.676-2.67v-9.475c0.756,2.357,1.281,5.766,1.606,10.988    c0.092,1.465,1.306,2.59,2.751,2.59c0.058,0,0.115-0.002,0.172-0.006c1.521-0.096,2.678-1.407,2.583-2.926    C124.024,57.384,120.857,54.707,115.342,51.325z M110.634,65.85h-0.035l-1.711-2.345l1.711-11.452h0.035l1.712,11.452    L110.634,65.85z" fill="#FF7500"/>
		<polygon points="89.983,20.474 66.727,20.474 78.355,32.103   " fill="#FF7500"/>
		<path d="M71.307,43.455c0,3.895,3.156,7.05,7.049,7.05c3.894,0,7.049-3.155,7.049-7.05c0-3.891-3.155-7.048-7.049-7.048    C74.463,36.407,71.307,39.564,71.307,43.455z" fill="#FF7500"/>
		<path d="M83.045,52.22c-0.106-0.063-0.219-0.109-0.328-0.156c-0.794-0.531-1.69-0.926-2.604-1.15l-1.756,1.768l-1.703-1.786    c-0.006,0-0.012,0-0.018,0.001c-0.917,0.221-1.816,0.613-2.616,1.149c-0.121,0.054-0.244,0.104-0.36,0.175    c-2.904,1.782-9.583,8.476-9.266,12.375c0.189,2.324,2.801,6.688,4.341,9.08c0.523,0.814,1.404,1.257,2.305,1.257    c0.157,0,0.314-0.021,0.473-0.048c-0.004,0.068-0.01,0.137-0.01,0.205l0.002,26.205c0,1.787,1.447,3.234,3.233,3.234    c1.787,0,3.235-1.447,3.235-3.234l-0.002-22.49c0.129,0.007,0.256,0.018,0.385,0.018c0.025,0,0.05-0.003,0.075-0.004    l-0.001,22.479c0,1.785,1.448,3.234,3.235,3.234l0,0c1.785,0,3.234-1.449,3.234-3.234V75.151c0.05-0.098,0.097-0.195,0.142-0.296    c0.207,0.049,0.417,0.079,0.625,0.079c0.899,0,1.78-0.443,2.303-1.256c1.54-2.395,4.151-6.758,4.341-9.081    C92.628,60.695,85.948,54.002,83.045,52.22z M71.142,66.995c-0.644-1.193-1.116-2.191-1.257-2.695    c0.164-0.477,0.623-1.226,1.257-2.081V66.995z M78.373,66.634H78.34l-1.7-2.326l1.7-11.364h0.033l1.699,11.364L78.373,66.634z     M85.57,66.978V62.23c0.624,0.844,1.08,1.586,1.245,2.063C86.666,64.814,86.2,65.804,85.57,66.978z" fill="#FF7500"/>
	</g>
</g>
<g>
</g>
<g>
</g>
<g>
</g>
<g>
</g>
<g>
</g>
<g>
</g>
<g>
</g>
<g>
</g>
<g>
</g>
<g>
</g>
<g>
</g>
<g>
</g>
<g>
</g>
<g>
</g>
<g>
</g>
</svg>
